<svg width="28" height="26" viewBox="0 0 28 26" fill="none" xmlns="http://www.w3.org/2000/svg">
<g clip-path="url(#clip0_0_229)">
<path d="M24.1783 13.5734C23.6042 19.7517 18.1374 24.2949 11.9592 23.7207C5.78093 23.1466 1.23775 17.6798 1.81188 11.5016C2.31114 6.10965 6.57973 1.85353 11.9592 1.35428C9.08847 5.23596 9.91223 10.7028 13.7939 13.5734C16.8768 15.845 21.0955 15.845 24.1783 13.5734Z" stroke="white" stroke-width="2" stroke-linecap="round" stroke-linejoin="round"/>
<path d="M20.0845 8.65584C19.9597 8.55599 19.8099 8.51855 19.6601 8.53103H17.3511L19.5228 6.10966L19.735 5.885L19.8598 5.72274C19.8973 5.67282 19.9222 5.61041 19.9472 5.56048C19.9721 5.49808 19.9846 5.43567 19.9846 5.36078C19.9971 5.19853 19.9222 5.04875 19.7849 4.96138C19.6102 4.87401 19.4105 4.83657 19.2108 4.84905H16.4899C16.3526 4.83657 16.2028 4.88649 16.0905 4.97386C15.9906 5.04875 15.9407 5.17356 15.9407 5.29838C15.9407 5.4856 16.0031 5.59793 16.1279 5.64785C16.3026 5.69778 16.4899 5.72274 16.6771 5.71026H18.4369C18.3621 5.81011 18.2747 5.93492 18.1499 6.07222L17.7006 6.58395L17.1014 7.25794L16.415 8.04426C16.1654 8.31885 16.0031 8.50606 15.9282 8.60592C15.766 8.8181 15.7909 9.10517 15.9781 9.29239C16.1279 9.40472 16.3026 9.45464 16.4774 9.44216H19.6726C19.8224 9.45464 19.9721 9.40472 20.097 9.31735C20.1843 9.22998 20.2343 9.11765 20.2343 8.99283C20.2343 8.85554 20.1843 8.74321 20.0845 8.65584Z" fill="white"/>
<path d="M27.2987 4.78665C27.1489 4.66184 26.9617 4.61191 26.7744 4.6244H23.8663L26.5872 1.59145L26.8368 1.30438L26.9991 1.10468C27.049 1.04227 27.0865 0.967382 27.1114 0.892494C27.1489 0.817606 27.1614 0.730237 27.1614 0.642869C27.1863 0.443168 27.0865 0.243468 26.9117 0.143617C26.6746 0.0562485 26.425 0.0063234 26.1753 0.0188047H22.7679C22.5932 0.0063234 22.406 0.0562485 22.2687 0.16858C22.1564 0.26843 22.0815 0.418206 22.094 0.580462C22.094 0.817606 22.1688 0.954901 22.3311 1.00483C22.5558 1.06723 22.7804 1.09219 23.0176 1.09219H25.2143C25.1269 1.21701 25.0021 1.36678 24.8523 1.54152L24.2782 2.19055L23.5293 3.01431L22.6431 4.00033C22.3311 4.34981 22.1314 4.57447 22.044 4.6868C21.8319 4.94891 21.8568 5.33583 22.1064 5.57297C22.2937 5.71027 22.5183 5.77267 22.743 5.76019H26.7495C26.9492 5.78515 27.1364 5.73523 27.2987 5.6229C27.411 5.52305 27.4859 5.37327 27.4734 5.21102C27.4859 5.04876 27.4235 4.89898 27.2987 4.78665Z" fill="white"/>
</g>
<defs>
<clipPath id="clip0_0_229">
<rect width="26.972" height="25" fill="white" transform="translate(0.513855 0.0187988)"/>
</clipPath>
</defs>
</svg>
